<?xml version="1.0" standalone="no"?><!-- Generator: Gravit.io --><svg xmlns="http://www.w3.org/2000/svg" xmlns:xlink="http://www.w3.org/1999/xlink" style="isolation:isolate" viewBox="154 -334 1866.584 588" width="1866.584" height="588"><defs><clipPath id="_clipPath_dTcgHESkgKB6LshOjCvTCbYuftJdD1Xc"><rect x="154" y="-334" width="1866.584" height="588"/></clipPath></defs><g clip-path="url(#_clipPath_dTcgHESkgKB6LshOjCvTCbYuftJdD1Xc)"><path d=" M 413.696 -149.517 C 415.859 -145.21 418.463 -137.884 418.936 -127.008 C 419.318 -117.577 419.94 -88.551 420.134 -78.744 C 427.907 -79.197 442.585 -79.981 452.029 -79.981 C 460.534 -79.981 486.639 -80.461 527.55 -81.393 L 530.148 -81.452 C 540.946 -81.685 566.429 -85.649 569.771 -117.337 C 572.738 -145.242 557.004 -152.063 556.337 -152.341 C 550.585 -156.183 525.445 -162.958 496.536 -162.958 C 493.33 -162.958 490.052 -162.874 486.742 -162.699 C 459.226 -161.267 426.527 -153.015 413.696 -149.517 Z " fill="rgb(0,51,153)"/><path d=" M 367.199 -177.176 C 373.598 -177.04 380.121 -175.621 386.644 -172.959 C 398.258 -168.205 404.101 -163.295 406.679 -160.613 C 415.689 -163.424 448.232 -172.927 482.984 -175.427 C 487.862 -175.784 492.882 -175.965 497.908 -175.965 C 525.017 -175.965 544.747 -170.66 551.594 -168.516 C 553.738 -170.174 557.605 -173.309 560.863 -176.8 C 566.272 -182.572 569.491 -188.926 571.318 -197.399 C 572.976 -205.224 573.98 -215.918 566.874 -229.339 C 561.958 -238.719 549.488 -243.46 529.868 -243.46 C 527.335 -243.46 524.524 -243.571 521.434 -243.7 C 517.697 -243.849 513.513 -244.011 508.81 -244.011 C 495.376 -244.011 473.993 -242.761 443.789 -231.937 C 410.585 -220.077 379.953 -190.591 367.199 -177.176 Z " fill="rgb(0,51,153)"/><path d=" M 279.253 -178.185 C 287.175 -178.185 298.336 -177.388 306.406 -173.599 C 314.568 -169.803 321.668 -162.834 326.053 -157.911 C 327.743 -160.392 330.322 -163.812 333.411 -166.701 C 338.393 -171.339 345.11 -173.988 347.798 -174.921 C 350.37 -177.81 364.497 -193.576 378.981 -206.758 C 400.408 -226.229 426.83 -241.082 457.488 -250.889 C 472.729 -255.766 491.637 -258.228 513.641 -258.228 C 527.976 -258.228 539.532 -257.114 543.198 -256.706 C 547.448 -259.776 565.649 -274.085 565.371 -293.841 C 564.924 -323.884 553.439 -331.346 503.983 -333.781 C 452.098 -336.385 394.656 -315.612 347.578 -277.712 C 307.994 -245.875 285.199 -194.262 278.806 -178.185 L 279.253 -178.185 Z " fill="rgb(0,51,153)"/><path d=" M 486.144 -67.827 C 486.571 -60.442 487.388 -45.428 487.388 -35.931 C 487.388 -24.823 488.223 13.414 488.676 33.941 L 488.845 42.181 C 489.104 52.992 493.075 78.474 524.737 81.81 C 527.017 82.056 529.226 82.173 531.35 82.173 C 553.756 82.173 559.515 68.92 559.728 68.363 C 563.466 62.792 571.919 33.682 570.118 -1.219 C 568.699 -28.612 560.415 -61.401 556.917 -74.278 C 552.603 -72.102 545.283 -69.479 534.401 -69.032 C 529.957 -68.85 517.955 -68.481 486.144 -67.827 Z " fill="rgb(0,51,153)"/><path d=" M 575.934 63.617 C 577.436 65.593 580.591 69.544 584.199 72.9 C 590.016 78.321 596.37 81.541 604.81 83.354 C 608.606 84.158 612.085 84.559 615.453 84.559 C 622.604 84.559 629.58 82.719 636.751 78.937 C 646.13 73.988 650.891 61.525 650.891 41.905 C 650.891 39.618 650.975 37.098 651.066 34.339 L 651.105 33.478 C 651.733 17.368 652.699 -6.884 639.368 -44.194 C 627.54 -77.255 598.022 -107.972 584.607 -120.752 C 584.477 -115.583 583.473 -108.924 580.358 -101.306 C 575.72 -89.932 570.978 -84.076 568.012 -81.278 C 570.823 -72.229 580.338 -39.615 582.826 -4.999 C 585.359 30.012 578.168 56.408 575.934 63.617 Z " fill="rgb(0,51,153)"/><path d=" M 664.117 55.236 C 667.699 60.204 681.464 77.389 700.76 77.389 C 731.282 76.949 738.751 65.477 741.199 16.015 C 743.751 -35.889 723.321 -92.904 685.111 -140.397 C 653.3 -179.936 601.693 -202.743 585.59 -209.15 C 585.636 -201.403 584.93 -189.886 581.023 -181.543 C 577.137 -173.258 569.837 -165.945 565.309 -161.922 C 567.907 -160.141 571.275 -157.569 574.106 -154.538 C 578.705 -149.634 581.386 -142.865 582.332 -140.158 C 586.238 -136.692 601.369 -123.051 614.169 -108.981 C 633.614 -87.573 648.468 -61.178 658.3 -30.474 C 669.079 3.222 664.998 47.139 664.117 55.236 Z " fill="rgb(0,51,153)"/><path d=" M 475.668 -1.252 C 467.83 -0.792 453.062 -0.009 443.767 -0.009 C 431.874 -0.009 389.867 0.918 369.69 1.365 L 365.654 1.449 C 354.856 1.701 329.381 5.679 326.025 37.341 C 323.065 65.382 339.291 72.267 339.466 72.332 C 345.84 76.614 375.785 84.4 409.079 82.703 C 436.447 81.284 469.249 73.019 482.133 69.521 C 479.963 65.207 477.34 57.855 476.892 47.005 C 476.504 38.377 475.966 13.057 475.707 0.885 L 475.668 -1.252 Z " fill="rgb(0,51,153)"/><path d=" M 344.23 88.519 C 342.255 90.041 338.303 93.202 334.935 96.804 C 329.526 102.62 326.307 108.975 324.506 117.408 C 322.828 125.207 321.825 135.876 328.924 149.343 C 333.86 158.722 346.335 163.476 365.936 163.476 C 368.443 163.476 371.215 163.587 374.286 163.703 C 378.211 163.865 382.357 164.027 386.995 164.027 C 400.429 164.027 421.766 162.777 452.055 151.947 C 485.116 140.125 515.832 110.62 528.625 97.192 C 522.225 97.05 515.702 95.638 509.154 92.962 C 497.779 88.312 491.936 83.57 489.125 80.616 C 480.089 83.428 447.572 92.93 412.833 95.43 C 407.878 95.8 402.832 95.974 397.896 95.974 C 370.289 95.974 350.112 90.365 344.23 88.519 Z " fill="rgb(0,51,153)"/><path d=" M 352.602 176.721 C 348.353 179.791 330.17 194.087 330.449 213.844 C 330.903 243.899 342.361 251.355 391.823 253.797 C 443.767 256.297 501.151 235.614 548.242 197.715 C 587.826 165.884 610.601 114.252 617.001 98.188 L 616.547 98.188 C 608.606 98.188 597.445 97.391 589.375 93.602 C 581.064 89.722 573.79 82.434 569.774 77.913 C 567.862 80.705 565.33 83.957 562.389 86.716 C 557.473 91.296 550.71 93.984 548.029 94.923 C 543.688 99.788 530.384 114.453 516.82 126.773 C 495.438 146.218 469.016 161.065 438.312 170.898 C 423.097 175.769 404.209 178.243 382.159 178.243 C 367.825 178.243 356.275 177.129 352.602 176.721 Z " fill="rgb(0,51,153)"/><path d=" M 364.067 -161.732 C 341.655 -161.732 335.923 -148.479 335.69 -147.915 C 331.952 -142.345 323.518 -113.241 325.319 -78.334 C 326.757 -50.856 335.003 -18.125 338.501 -5.274 C 342.815 -7.444 350.16 -10.061 361.017 -10.527 C 365.46 -10.709 377.482 -11.072 409.274 -11.726 C 408.931 -17.834 408.05 -33.717 408.05 -43.627 C 408.05 -52.139 407.557 -78.25 406.631 -119.155 L 406.586 -121.766 C 406.333 -132.551 402.343 -158.027 370.681 -161.363 C 368.42 -161.609 366.192 -161.732 364.067 -161.732 Z " fill="rgb(0,51,153)"/><path d=" M 279.961 -164.114 C 272.836 -164.114 265.86 -162.28 258.689 -158.491 C 249.309 -153.529 244.542 -141.067 244.542 -121.466 C 244.542 -118.914 244.438 -116.128 244.309 -113.013 C 243.687 -96.981 242.715 -72.722 256.072 -35.36 C 267.9 -2.306 297.411 28.417 310.833 41.197 C 310.962 36.022 311.947 29.369 315.056 21.758 C 319.739 10.364 324.462 4.522 327.402 1.724 C 324.591 -7.274 315.102 -39.642 312.595 -74.556 C 310.075 -109.573 317.271 -135.962 319.499 -143.165 C 317.977 -145.16 314.803 -149.112 311.215 -152.461 C 305.424 -157.882 299.069 -161.102 290.629 -162.902 C 286.834 -163.718 283.355 -164.114 279.961 -164.114 Z " fill="rgb(0,51,153)"/><path d=" M 194.141 -156.944 C 164.156 -156.503 156.681 -145.031 154.213 -95.576 C 151.661 -43.639 172.117 13.363 210.308 60.837 C 242.139 100.42 293.745 123.189 309.822 129.595 C 309.796 122.522 310.399 110.532 314.415 101.988 C 318.321 93.677 325.595 86.384 330.11 82.368 C 327.318 80.444 324.053 77.911 321.307 74.983 C 316.734 70.067 314.052 63.305 313.106 60.61 C 308.255 56.283 293.57 42.978 281.25 29.421 C 261.779 7.974 246.945 -18.422 237.119 -49.08 C 226.366 -82.718 230.44 -126.687 231.321 -134.79 C 227.759 -139.759 213.981 -156.944 194.678 -156.944 L 194.141 -156.944 Z " fill="rgb(0,51,153)"/><path d=" M 1048.484 -60.929 C 1069.174 -60.929 1084.7 -65.528 1095.038 -74.719 C 1105.389 -83.918 1110.558 -98.861 1110.558 -119.557 C 1110.558 -139.469 1105.389 -153.939 1095.038 -162.949 C 1084.7 -171.953 1069.174 -176.449 1048.484 -176.449 L 949.618 -176.449 L 949.618 -60.929 L 1048.484 -60.929 Z  M 1080.678 -246.581 C 1099.067 -246.581 1115.63 -243.614 1130.392 -237.674 C 1145.135 -231.721 1157.779 -223.586 1168.325 -213.247 C 1178.857 -202.896 1186.908 -190.913 1192.466 -177.323 C 1198.011 -163.714 1200.803 -149.055 1200.803 -133.347 C 1200.803 -109.206 1195.711 -88.322 1185.574 -70.697 C 1175.411 -53.065 1158.841 -39.657 1135.853 -30.465 L 1135.853 -29.312 C 1146.955 -26.248 1156.16 -21.552 1163.44 -15.23 C 1170.721 -8.914 1176.661 -1.439 1181.26 7.182 C 1185.859 15.804 1189.201 25.293 1191.32 35.631 C 1193.418 45.982 1194.85 56.327 1195.634 66.678 C 1196.003 73.201 1196.391 80.851 1196.78 89.66 C 1197.156 98.482 1197.83 107.486 1198.795 116.671 C 1199.747 125.876 1201.269 134.595 1203.387 142.827 C 1205.486 151.073 1208.653 158.062 1212.87 163.808 L 1122.632 163.808 C 1117.645 150.788 1114.581 135.268 1113.428 117.254 C 1112.281 99.253 1110.558 81.997 1108.265 65.525 C 1105.188 44.065 1098.679 28.364 1088.716 18.395 C 1078.747 8.432 1062.463 3.451 1039.863 3.451 L 949.618 3.451 L 949.618 163.808 L 859.38 163.808 L 859.38 -246.581 L 1080.678 -246.581 Z " fill="rgb(0,51,153)"/><path d=" M 1471.77 3.758 L 1420.047 -146.831 L 1418.894 -146.831 L 1365.436 3.758 L 1471.77 3.758 Z  M 1466.601 -247.997 L 1620.06 162.399 L 1526.376 162.399 L 1495.336 71.007 L 1341.871 71.007 L 1309.684 162.399 L 1218.869 162.399 L 1374.057 -247.997 L 1466.601 -247.997 Z " fill="rgb(0,51,153)"/><path d=" M 1732.051 -246.581 L 1732.051 -76.45 L 1892.408 -246.581 L 2005.071 -246.581 L 1844.707 -84.495 L 2020.584 163.814 L 1907.358 163.814 L 1783.786 -20.691 L 1732.051 31.615 L 1732.051 163.814 L 1641.806 163.814 L 1641.806 -246.581 L 1732.051 -246.581 Z " fill="rgb(0,51,153)"/></g></svg>
